<?xml version="1.0" standalone="no"?>
<!DOCTYPE svg PUBLIC "-//W3C//DTD SVG 20010904//EN"
 "http://www.w3.org/TR/2001/REC-SVG-20010904/DTD/svg10.dtd">
<svg version="1.0" xmlns="http://www.w3.org/2000/svg"
 width="2338.000000pt" height="1307.000000pt" viewBox="0 0 2338.000000 1307.000000"
 preserveAspectRatio="xMidYMid meet">
<metadata>
Created by potrace 1.16, written by Peter Selinger 2001-2019
</metadata>
<g transform="translate(0.000000,1307.000000) scale(0.100000,-0.100000)"
fill="#000000" stroke="none">
<path d="M14785 11173 c-305 -39 -613 -188 -815 -393 -200 -203 -320 -447
-365 -745 -13 -87 -15 -515 -15 -3413 0 -3240 0 -3314 19 -3350 73 -142 336
-232 676 -232 333 0 598 88 673 225 15 27 17 121 22 999 l5 969 725 -934 c398
-514 749 -961 780 -993 152 -163 382 -251 685 -263 286 -11 527 45 690 161
130 93 168 208 108 327 -16 30 -396 551 -847 1157 l-818 1103 44 57 c400 511
1608 2088 1625 2121 35 67 32 150 -7 218 -117 204 -598 324 -996 248 -176 -33
-344 -110 -446 -205 -36 -33 -385 -463 -803 -987 l-740 -928 -3 2432 -2 2433
-83 -1 c-45 -1 -95 -4 -112 -6z"/>
<path d="M20285 8460 c-177 -12 -374 -37 -530 -65 -363 -67 -747 -205 -882
-317 -112 -93 -207 -246 -253 -408 -27 -94 -38 -290 -21 -372 39 -185 156
-279 311 -249 32 7 114 38 182 71 352 167 801 262 1248 262 309 -1 521 -38
705 -126 200 -96 309 -220 350 -401 21 -94 35 -264 35 -435 l0 -157 -347 -6
c-756 -14 -1226 -78 -1658 -224 -166 -56 -403 -174 -524 -260 -412 -295 -610
-733 -588 -1298 24 -607 307 -1059 822 -1315 291 -145 590 -210 962 -210 466
0 879 132 1241 397 l72 53 0 -76 c0 -101 15 -147 66 -199 107 -110 342 -175
634 -175 340 0 599 89 677 233 17 30 18 135 18 1817 0 1911 1 1870 -51 2130
-101 504 -361 864 -773 1070 -243 121 -567 205 -948 245 -181 19 -572 27 -748
15z m1093 -3146 l52 -7 0 -102 c0 -116 -13 -267 -35 -400 -49 -292 -173 -535
-343 -671 -78 -63 -217 -129 -337 -161 -90 -24 -118 -26 -285 -27 -144 -1
-198 3 -245 16 -224 62 -363 166 -445 333 -47 94 -64 176 -63 300 1 314 161
517 497 629 134 45 279 69 531 89 77 7 621 7 673 1z"/>
<path d="M5270 8450 c-401 -56 -822 -249 -1195 -549 l-100 -80 -5 157 c-5 172
-11 191 -72 251 -98 97 -296 156 -558 168 -382 17 -713 -98 -759 -263 -8 -28
-11 -1206 -11 -3962 l0 -3923 88 6 c211 16 380 59 548 139 157 76 253 143 375
265 195 195 301 394 361 678 l23 108 3 1083 3 1083 92 -82 c330 -292 682 -477
1049 -551 97 -20 143 -23 333 -23 173 0 238 4 305 18 542 114 983 428 1331
947 107 158 248 440 315 625 195 547 243 1168 139 1801 -168 1013 -722 1774
-1474 2024 -200 67 -289 81 -521 85 -113 2 -234 0 -270 -5z m195 -1175 c178
-37 326 -116 451 -239 130 -130 213 -271 284 -485 81 -241 113 -479 114 -836
0 -266 -9 -372 -50 -568 -101 -482 -344 -811 -692 -937 -141 -51 -212 -63
-377 -64 -123 0 -166 4 -239 22 -358 89 -680 331 -822 617 -50 101 -110 322
-139 515 -26 172 -32 536 -11 719 28 240 82 470 140 597 158 342 521 600 941
670 100 17 291 11 400 -11z"/>
<path d="M10430 8454 c-890 -81 -1546 -521 -1920 -1289 -188 -385 -282 -779
-312 -1297 -33 -588 72 -1156 296 -1602 134 -267 258 -437 462 -637 399 -389
914 -612 1543 -670 171 -15 651 -6 850 16 426 47 769 136 1046 270 90 43 121
64 171 116 131 138 194 314 194 542 0 210 -57 349 -167 414 -39 22 -58 27
-112 26 -57 0 -84 -8 -201 -58 -484 -207 -878 -284 -1411 -273 -257 6 -366 22
-541 79 -460 150 -726 538 -755 1101 l-6 117 1494 3 c1390 3 1498 5 1554 21
148 43 234 111 290 228 62 130 70 188 69 504 0 307 -15 444 -74 690 -223 934
-873 1532 -1823 1676 -128 20 -528 34 -647 23z m471 -1168 c133 -18 212 -38
319 -83 266 -110 458 -322 550 -607 29 -88 25 -177 -9 -225 -33 -45 -126 -87
-224 -100 -51 -7 -414 -11 -1023 -11 l-944 0 0 28 c0 15 5 59 10 97 41 285
166 516 366 675 236 188 597 273 955 226z"/>
<path d="M1055 8386 c-267 -39 -442 -135 -474 -261 -16 -62 -16 -4757 0 -4820
40 -158 317 -265 688 -265 288 0 536 67 638 172 68 71 63 -144 63 2507 l0
2399 -28 53 c-48 93 -181 164 -382 204 -105 21 -392 28 -505 11z"/>
</g>
</svg>
